<svg width="11" height="12" viewBox="0 0 11 12" fill="none" xmlns="http://www.w3.org/2000/svg">
<path fill-rule="evenodd" clip-rule="evenodd" d="M2.4712 0.129591C2.9297 0.129734 3.35033 0.384015 3.56353 0.789925L4.77928 3.13504C4.97722 3.51709 4.9619 3.97465 4.73885 4.34261C4.51581 4.71057 4.11724 4.93581 3.68696 4.93707H1.25545C0.820778 4.94453 0.414238 4.72277 0.185197 4.35326C-0.0438442 3.98376 -0.0616076 3.52101 0.138433 3.13504L1.3727 0.789925C1.58693 0.382046 2.01049 0.127433 2.4712 0.129591ZM3.68522 4.02368C3.79355 4.02431 3.89426 3.9681 3.95059 3.87557V3.86323C4.00678 3.77903 4.01609 3.67198 3.97528 3.57935L2.74101 1.23424C2.69468 1.13556 2.59693 1.07119 2.48798 1.06761C2.37234 1.06355 2.26452 1.12585 2.21027 1.22806L0.976003 3.57317C0.92613 3.66942 0.93042 3.78478 0.987303 3.87706C1.04419 3.96934 1.14532 4.025 1.25371 4.02368H3.68522Z" fill="#0B1C3F"/>
<path fill-rule="evenodd" clip-rule="evenodd" d="M10.9996 2.46854C10.9996 3.83187 9.89437 4.93708 8.53104 4.93708C7.1677 4.93708 6.0625 3.83187 6.0625 2.46854C6.0625 1.1052 7.1677 0 8.53104 0C9.89437 0 10.9996 1.1052 10.9996 2.46854ZM10.0739 2.46854C10.0739 1.61645 9.38312 0.925702 8.53103 0.925702C8.12185 0.925702 7.72942 1.08825 7.44008 1.37759C7.15074 1.66693 6.9882 2.05935 6.9882 2.46854C6.9882 3.32062 7.67895 4.01137 8.53103 4.01137C9.38312 4.01137 10.0739 3.32062 10.0739 2.46854Z" fill="#0B1C3F"/>
<path fill-rule="evenodd" clip-rule="evenodd" d="M7.29677 6.17139H9.76531C10.447 6.17139 10.9996 6.72399 10.9996 7.40566V9.87419C10.9996 10.5559 10.447 11.1085 9.76531 11.1085H7.29677C6.6151 11.1085 6.0625 10.5559 6.0625 9.87419V7.40566C6.0625 6.72399 6.6151 6.17139 7.29677 6.17139ZM9.7653 10.1829C9.93572 10.1829 10.0739 10.0447 10.0739 9.87432V7.40578C10.0739 7.23536 9.93572 7.09721 9.7653 7.09721H7.29676C7.12635 7.09721 6.9882 7.23536 6.9882 7.40578V9.87432C6.9882 10.0447 7.12635 10.1829 7.29676 10.1829H9.7653Z" fill="#0B1C3F"/>
<path d="M4.65119 6.27005C4.56523 6.18183 4.44728 6.13208 4.32411 6.13208C4.20094 6.13208 4.08299 6.18183 3.99703 6.27005L2.47271 7.79438L0.948385 6.27005C0.766016 6.10012 0.481826 6.10513 0.305565 6.28139C0.129303 6.45766 0.124289 6.74185 0.294223 6.92422L1.8062 8.44854L0.294223 9.97286C0.206005 10.0588 0.15625 10.1768 0.15625 10.2999C0.15625 10.4231 0.206005 10.5411 0.294223 10.627C0.381683 10.7127 0.498856 10.7614 0.621304 10.7628C0.743495 10.7601 0.86023 10.7117 0.948385 10.627L2.47271 9.1027L3.99703 10.627C4.08449 10.7127 4.20166 10.7614 4.32411 10.7628C4.4463 10.7601 4.56304 10.7117 4.65119 10.627C4.83168 10.4463 4.83168 10.1536 4.65119 9.97286L3.12687 8.44854L4.65119 6.92422C4.83168 6.74351 4.83168 6.45076 4.65119 6.27005Z" fill="#0B1C3F"/>
</svg>
