<svg width="12" height="11" viewBox="0 0 12 11" fill="none" xmlns="http://www.w3.org/2000/svg">
<path fill-rule="evenodd" clip-rule="evenodd" d="M2.4855 0H8.70726C10.1246 0.0486443 11.2355 1.23462 11.1915 2.65209V6.3001C11.2126 6.98468 10.9599 7.64942 10.4895 8.14717C10.019 8.64493 9.36956 8.93464 8.68489 8.95219H3.35833C2.98972 8.95981 2.64016 9.11742 2.39038 9.38861L1.06434 10.8042C0.951991 10.9267 0.794133 10.9975 0.627916 11C0.456246 10.9956 0.293447 10.9228 0.175753 10.7978C0.0580582 10.6727 -0.00476586 10.5058 0.00126292 10.3342V2.65209C-0.0427327 1.23462 1.06818 0.0486443 2.4855 0ZM8.70848 8.11301C9.66242 8.06474 10.3978 7.25431 10.3534 6.30019V2.65217C10.3978 1.69805 9.66242 0.887623 8.70848 0.839355H2.48671C1.53278 0.887623 0.797393 1.69805 0.841749 2.65217V9.81392L1.75375 8.81799C2.17083 8.37433 2.75067 8.11977 3.35955 8.11301H8.70848Z" fill="#0B1C3F"/>
<path d="M3.49776 3.77677H6.29532C6.52707 3.77677 6.71495 3.58889 6.71495 3.35713C6.71495 3.12538 6.52707 2.9375 6.29532 2.9375H3.49776C3.266 2.9375 3.07812 3.12538 3.07812 3.35713C3.07812 3.58889 3.266 3.77677 3.49776 3.77677Z" fill="#0B1C3F"/>
<path d="M7.6941 5.17554H3.49776C3.266 5.17554 3.07812 5.36341 3.07812 5.59517C3.07812 5.82693 3.266 6.0148 3.49776 6.0148H7.6941C7.92585 6.0148 8.11373 5.82693 8.11373 5.59517C8.11373 5.36341 7.92585 5.17554 7.6941 5.17554Z" fill="#0B1C3F"/>
</svg>
