<svg width="10" height="11" viewBox="0 0 10 11" fill="none" xmlns="http://www.w3.org/2000/svg">
<path fill-rule="evenodd" clip-rule="evenodd" d="M3.36361 0.402089L8.78277 3.55031C9.47433 3.95356 9.9 4.69644 9.9 5.5001C9.9 6.30376 9.47433 7.04663 8.78277 7.44989L3.36361 10.5981C2.66959 11.0009 1.81448 11.0008 1.12058 10.5977C0.426685 10.1947 -0.000512455 9.45013 4.61357e-07 8.64456V2.35564C-0.000512455 1.55007 0.426685 0.805458 1.12058 0.40245C1.81448 -0.000557519 2.66959 -0.000695184 3.36361 0.402089ZM2.69276 9.4259L8.11192 6.2852C8.39076 6.12518 8.56217 5.82653 8.5604 5.50378C8.56329 5.17877 8.39195 4.87735 8.11192 4.71485L2.69276 1.57414C2.55722 1.49225 2.40241 1.44816 2.24428 1.44641C1.74478 1.44641 1.33984 1.85345 1.33984 2.35556V8.64448C1.33984 8.88561 1.43513 9.11685 1.60475 9.28735C1.77436 9.45785 2.00441 9.55364 2.24428 9.55364C2.40241 9.55189 2.55722 9.5078 2.69276 9.4259Z" fill="#11296B"/>
</svg>
